<?xml version="1.0" standalone="no"?>
<!DOCTYPE svg PUBLIC "-//W3C//DTD SVG 20010904//EN"
 "http://www.w3.org/TR/2001/REC-SVG-20010904/DTD/svg10.dtd">
<svg version="1.0" xmlns="http://www.w3.org/2000/svg"
 width="608.000000pt" height="608.000000pt" viewBox="0 0 608.000000 608.000000"
 preserveAspectRatio="xMidYMid meet">
<metadata>
Created by potrace 1.11, written by Peter Selinger 2001-2013
</metadata>
<g transform="translate(0.000000,608.000000) scale(0.100000,-0.100000)"
fill="#000000" stroke="none">
<path d="M3527 6074 c-3 -4 -19 -8 -34 -10 -15 -1 -44 -6 -63 -10 -19 -4 -42
-8 -50 -9 -16 -2 -91 -15 -125 -21 -50 -10 -133 -24 -169 -30 -21 -3 -48 -8
-60 -10 -11 -2 -50 -9 -86 -14 -96 -15 -110 -19 -110 -33 1 -12 46 -40 264
-160 l128 -70 67 11 c36 6 156 29 266 52 110 23 211 44 225 46 91 18 203 45
218 53 14 8 -24 30 -190 110 -194 95 -259 117 -281 95z"/>
<path d="M2305 5868 c-154 -26 -296 -50 -315 -53 -20 -3 -47 -7 -60 -10 -13
-3 -42 -7 -65 -11 -22 -3 -77 -12 -123 -20 -45 -8 -99 -17 -120 -20 -20 -3
-45 -7 -54 -10 -9 -3 -25 -6 -35 -8 -10 -2 -36 -7 -58 -11 -22 -4 -51 -9 -65
-12 -14 -2 -29 -8 -33 -12 -5 -5 96 -68 224 -141 245 -140 253 -143 337 -121
20 5 53 12 72 15 19 3 76 14 125 25 50 11 101 22 115 25 14 2 137 27 275 55
137 28 259 53 270 55 130 26 275 60 275 65 0 9 -86 60 -295 176 -113 62 -122
66 -157 63 -18 -2 -159 -24 -313 -50z"/>
<path d="M4138 5805 c-3 -4 -117 -28 -178 -39 -113 -19 -567 -119 -574 -126
-5 -5 6 -17 25 -29 19 -11 39 -25 46 -30 7 -6 14 -11 16 -11 2 0 59 -31 126
-70 68 -38 124 -70 126 -70 2 0 41 -22 87 -48 46 -26 112 -63 148 -81 l65 -34
410 103 c226 56 416 103 423 103 23 1 12 17 -20 31 -18 7 -67 30 -108 49 -475
223 -577 267 -592 252z"/>
<path d="M1070 5665 c-41 -7 -93 -16 -115 -19 -22 -4 -92 -15 -155 -26 -63
-11 -126 -22 -140 -24 -14 -3 -68 -12 -120 -20 -52 -9 -106 -18 -120 -21 -14
-3 -38 -7 -55 -10 -65 -11 -85 -17 -85 -24 0 -12 430 -293 468 -306 29 -11 60
-7 221 26 102 22 200 42 216 44 27 5 308 62 345 70 8 2 46 10 83 18 37 8 71
17 74 20 7 8 -76 60 -291 183 -199 114 -193 112 -326 89z"/>
<path d="M3050 5579 c-74 -16 -151 -31 -170 -34 -19 -4 -51 -10 -70 -15 -19
-5 -48 -11 -64 -14 -28 -5 -105 -21 -151 -31 -11 -2 -67 -14 -125 -25 -58 -12
-114 -23 -125 -26 -11 -2 -31 -6 -44 -9 -14 -2 -77 -16 -140 -30 -64 -13 -127
-26 -140 -28 -14 -2 -26 -8 -28 -13 -6 -18 664 -404 700 -404 9 0 56 9 104 21
48 11 95 22 103 24 99 23 842 206 918 226 23 6 42 15 42 20 0 19 -625 370
-656 368 -11 0 -80 -14 -154 -30z"/>
<path d="M115 5213 c7 -267 15 -461 31 -778 8 -159 6 -156 149 -257 251 -179
365 -254 373 -249 6 4 9 159 7 446 -5 744 -2 671 -27 695 -23 21 -476 328
-518 350 l-21 11 6 -218z"/>
<path d="M4715 5350 c-148 -38 -281 -72 -294 -75 -69 -13 -233 -60 -247 -69
-15 -11 16 -31 201 -132 22 -11 56 -30 75 -41 19 -11 118 -66 220 -123 l185
-103 60 12 c33 7 71 14 85 17 14 3 43 10 65 16 22 5 47 12 55 13 8 2 35 8 60
14 25 5 56 12 70 15 113 22 567 129 573 135 12 12 -7 23 -123 76 -58 26 -145
67 -195 90 -287 135 -487 225 -503 225 -9 0 -138 -32 -287 -70z"/>
<path d="M1710 5305 c-30 -7 -68 -15 -85 -18 -16 -3 -41 -8 -55 -11 -14 -3
-36 -8 -50 -10 -63 -11 -569 -117 -603 -127 -22 -6 -37 -12 -35 -14 39 -38
662 -455 680 -455 22 0 952 230 968 240 8 5 12 11 10 13 -9 8 -371 217 -376
217 -2 0 -21 11 -42 23 -20 13 -95 54 -166 90 -137 72 -152 75 -246 52z"/>
<path d="M3870 5145 c-96 -25 -861 -214 -891 -220 -11 -2 -34 -9 -52 -14 -18
-6 -45 -14 -62 -19 -16 -5 -30 -13 -30 -18 0 -5 140 -89 310 -188 242 -139
318 -178 345 -178 31 0 460 92 871 187 81 19 158 36 170 39 13 2 44 9 69 16
25 7 56 14 70 17 34 6 38 12 17 28 -10 7 -163 94 -340 194 -255 143 -331 181
-358 180 -19 -1 -72 -11 -119 -24z"/>
<path d="M762 4982 c-5 -9 -8 -109 -6 -222 11 -742 14 -898 19 -911 3 -8 34
-33 68 -57 34 -24 159 -111 277 -194 118 -83 222 -151 230 -152 13 -1 15 35
16 264 0 146 4 279 9 295 9 32 15 534 7 573 -4 23 -46 52 -469 329 -124 81
-144 90 -151 75z"/>
<path d="M5630 4854 c-151 -35 -286 -66 -300 -68 -14 -3 -108 -25 -210 -48
-217 -50 -230 -57 -231 -140 0 -29 -2 -61 -4 -70 -2 -9 -6 -61 -10 -115 -3
-54 -8 -114 -10 -133 -2 -19 -6 -80 -9 -135 -4 -55 -9 -111 -11 -125 -2 -14
-7 -70 -10 -125 -4 -55 -8 -116 -10 -135 -11 -119 -14 -207 -6 -219 8 -12 36
-7 173 28 89 23 307 78 483 122 176 45 328 88 337 96 10 9 20 38 24 72 3 31 8
65 10 76 2 10 6 37 9 60 3 22 10 72 15 110 6 39 12 90 15 115 3 25 7 61 10 80
11 81 66 519 72 568 l5 52 -33 -1 c-19 -1 -158 -30 -309 -65z"/>
<path d="M2230 4740 c-239 -60 -446 -112 -460 -115 -56 -11 -84 -22 -87 -32
-2 -6 115 -90 260 -187 194 -129 272 -176 294 -176 33 0 1059 227 1081 239 12
7 -162 112 -468 284 -19 10 -65 37 -102 58 -36 22 -70 39 -75 39 -4 -1 -204
-50 -443 -110z"/>
<path d="M4630 4624 c-132 -29 -941 -209 -1014 -226 -28 -7 -53 -20 -61 -32
-9 -14 -16 -83 -20 -206 -5 -102 -9 -210 -11 -240 -1 -30 -5 -147 -8 -260 -4
-113 -9 -259 -11 -324 -2 -66 0 -125 5 -131 10 -11 55 -1 545 125 132 34 247
63 255 65 84 18 393 104 400 111 10 10 20 102 35 309 3 44 7 100 10 125 2 25
7 90 10 145 3 55 8 120 10 145 2 25 7 92 10 150 3 58 8 134 11 170 7 113 11
112 -166 74z"/>
<path d="M1460 3963 c0 -432 3 -574 13 -593 16 -31 599 -450 627 -450 12 0 11
-31 15 390 2 190 6 433 9 541 7 228 3 247 -67 297 -25 17 -48 32 -51 32 -4 0
-98 62 -209 137 -111 75 -227 154 -258 175 -31 21 -62 38 -68 38 -8 0 -11
-154 -11 -567z"/>
<path d="M3185 4299 c-121 -27 -240 -53 -265 -58 -49 -11 -391 -93 -561 -136
-79 -20 -109 -32 -120 -48 -12 -19 -14 -110 -15 -570 -1 -301 2 -562 5 -580 5
-24 12 -32 26 -31 28 2 941 235 1077 275 50 15 69 25 74 41 8 25 10 58 19 323
4 105 9 224 10 265 2 41 6 165 10 275 4 110 8 215 10 234 4 46 -3 61 -29 60
-11 0 -120 -23 -241 -50z"/>
<path d="M166 4141 c-6 -9 0 -407 9 -601 2 -52 7 -165 10 -250 5 -107 12 -165
22 -188 25 -52 470 -444 482 -424 3 6 5 126 3 269 -2 142 -5 382 -7 533 -2
151 -6 287 -9 301 -4 21 -46 55 -198 161 -173 120 -259 179 -295 201 -6 4 -14
3 -17 -2z"/>
<path d="M775 3303 c7 -538 12 -699 25 -722 8 -16 185 -172 415 -365 33 -28
74 -63 90 -78 39 -36 45 -35 46 5 0 17 2 75 4 127 2 52 7 307 11 566 l6 472
-24 21 c-42 36 -557 391 -568 391 -7 0 -9 -128 -5 -417z"/>
<path d="M5331 3565 c-250 -63 -469 -119 -487 -125 -38 -13 -43 -23 -49 -116
-5 -64 -8 -109 -20 -254 -2 -30 -7 -91 -10 -135 -3 -44 -8 -111 -11 -150 -2
-38 -7 -92 -9 -120 -2 -27 -7 -93 -10 -145 -3 -52 -8 -108 -10 -125 -2 -16 -7
-74 -10 -127 l-7 -98 24 0 c13 0 64 12 113 26 50 14 236 66 415 115 179 49
337 94 352 100 32 13 40 30 52 119 4 25 9 56 11 70 4 23 11 71 19 137 2 15 9
66 16 113 7 47 14 99 16 115 8 69 15 122 19 145 4 26 11 84 20 168 3 26 8 58
10 72 11 66 35 272 35 302 0 16 -5 28 -12 27 -7 0 -217 -52 -467 -114z"/>
<path d="M4570 3375 c-126 -34 -360 -95 -670 -174 -151 -39 -299 -77 -329 -85
-57 -15 -70 -27 -72 -66 0 -14 -2 -52 -4 -85 -2 -33 -6 -136 -9 -230 -4 -93
-9 -210 -11 -260 -10 -213 -15 -644 -7 -649 4 -3 121 26 258 64 137 38 357 98
489 135 315 86 378 105 392 117 6 5 14 44 18 86 3 42 8 97 10 122 3 25 7 81
10 125 4 44 8 96 10 115 3 19 7 71 10 115 3 44 8 105 10 135 2 30 7 100 11
155 3 55 7 112 9 128 2 15 7 84 11 152 l7 125 -29 -1 c-16 0 -67 -11 -114 -24z"/>
<path d="M1456 3243 c-3 -3 -6 -279 -6 -613 l0 -606 28 -31 c26 -29 586 -505
601 -511 9 -3 8 -25 16 253 11 365 12 1038 3 1061 -5 11 -53 50 -106 87 -53
36 -187 129 -297 206 -231 163 -230 162 -239 154z"/>
<path d="M3270 3039 c-41 -10 -84 -20 -95 -23 -11 -2 -139 -34 -285 -71 -146
-37 -274 -69 -285 -71 -85 -17 -359 -94 -368 -103 -8 -8 -12 -100 -12 -320 0
-170 -3 -313 -8 -317 -10 -10 -8 -626 2 -642 8 -13 141 20 616 153 66 18 181
50 255 69 74 20 157 43 184 51 26 8 54 15 61 15 27 0 34 31 40 170 3 80 8 183
10 230 6 120 18 579 19 740 l1 135 -30 2 c-16 1 -64 -7 -105 -18z"/>
<path d="M205 2931 c-3 -5 -3 -67 -1 -138 3 -70 8 -225 11 -343 14 -469 11
-443 57 -491 8 -8 42 -45 78 -84 35 -38 109 -119 165 -180 56 -60 120 -130
143 -155 33 -36 42 -41 47 -28 9 22 -1 999 -10 1021 -9 23 -412 365 -472 400
-6 4 -14 3 -18 -2z"/>
<path d="M796 1968 c3 -408 6 -528 13 -584 0 -7 13 -25 29 -42 97 -105 214
-231 234 -253 12 -14 64 -70 114 -125 51 -54 101 -110 112 -124 14 -17 24 -22
31 -15 6 6 13 78 16 160 9 248 14 952 7 979 -5 18 -93 99 -271 251 -145 124
-269 225 -276 225 -11 0 -13 -89 -9 -472z"/>
<path d="M5410 2261 c-366 -96 -693 -190 -701 -203 -5 -7 -9 -24 -10 -38 0
-14 -2 -38 -4 -55 -1 -16 -6 -75 -9 -130 -4 -55 -9 -116 -11 -135 -2 -19 -6
-78 -10 -130 -3 -52 -8 -108 -10 -125 -2 -16 -7 -73 -10 -125 -4 -52 -8 -111
-10 -130 -15 -159 -16 -210 -2 -216 13 -5 120 33 402 143 50 19 161 62 248 94
87 33 172 66 187 74 35 18 44 47 65 205 8 63 17 124 19 135 2 11 7 49 11 85 4
36 9 72 10 81 3 16 13 91 21 159 2 19 6 51 9 70 2 19 7 53 10 75 3 22 9 70 14
107 11 77 6 108 -18 107 -9 0 -99 -22 -201 -48z"/>
<path d="M4320 1964 c-129 -36 -244 -67 -255 -69 -11 -3 -148 -41 -305 -85
-187 -52 -289 -85 -297 -97 -8 -10 -13 -52 -14 -107 -1 -50 -3 -116 -4 -146
-2 -30 -6 -143 -9 -250 -7 -199 -11 -324 -21 -557 -5 -114 -4 -133 9 -133 9 0
125 41 258 91 134 50 266 99 293 109 28 9 162 59 298 110 197 73 250 97 257
114 4 12 11 60 14 106 4 47 8 105 11 130 4 43 7 82 20 285 4 50 8 113 10 140
8 104 18 292 19 355 1 63 0 65 -24 67 -14 0 -131 -28 -260 -63z"/>
<path d="M1449 1888 c-8 -27 -10 -131 -13 -608 -2 -447 0 -570 10 -590 7 -14
32 -46 56 -71 47 -50 217 -235 258 -279 135 -148 305 -329 307 -327 13 14 31
1306 18 1338 -3 9 -43 47 -88 86 -499 422 -545 460 -548 451z"/>
<path d="M2780 1541 c-475 -129 -546 -151 -556 -171 -18 -33 -17 -1290 1
-1296 6 -3 225 74 486 171 603 224 609 227 615 237 3 4 7 81 9 170 5 162 8
282 21 723 9 334 10 315 -13 314 -10 0 -263 -67 -563 -148z"/>
</g>
</svg>
